# xmcd
#
# Track frame offsets: 
#        150
#        16785
#        36590
#        41405
#        53515
#        61355
#        66382
#        77185
#        91137
#        105595
#        116455
#        133115
#        152880
#        157545
#        169662
#        177412
#        182400
#        193155
#        207087
#        221502
#
# Disc length: 3097 seconds
#
# Revision: 0
# Processed by: cddbd v1.5.2PL0 Copyright (c) Steve Scherf et al.
# Submitted via: ExactAudioCopyFreeDBPlugin 1.0
#
DISCID=080c1714
DTITLE=JIMMY STEWART - Blues-Trax
DYEAR=1991
DGENRE=Guitar Blues
TTITLE0=PowerRock-Am-Solo
TTITLE1=UrbanBlues-Ab-Solo
TTITLE2=CountryRock-A-Solo
TTITLE3=BoogieWoogie-Bb-Solo
TTITLE4=BarroomBoogie-A-Solo
TTITLE5=JohnLeeH-E-Solo
TTITLE6=BB-King-Am-Solo
TTITLE7=MediumShuffle-A-Solo
TTITLE8=MediumShuffle-A-Solo
TTITLE9=Hendrix-A-Solo
TTITLE10=PowerRock-Am
TTITLE11=UrbanBlues-Ab
TTITLE12=CountryRock-A
TTITLE13=BoogieWoogie-Bb
TTITLE14=BarroomBoogie-A
TTITLE15=JohnLeeH-E
TTITLE16=BB-King-Am
TTITLE17=MediumShuffle-A
TTITLE18=T-Bone-Bb
TTITLE19=Hendrix-A
EXTD=
EXTT0=
EXTT1=
EXTT2=
EXTT3=
EXTT4=
EXTT5=
EXTT6=
EXTT7=
EXTT8=
EXTT9=
EXTT10=
EXTT11=
EXTT12=
EXTT13=
EXTT14=
EXTT15=
EXTT16=
EXTT17=
EXTT18=
EXTT19=
PLAYORDER=
